<svg width="25" height="26" viewBox="0 0 25 26" fill="none" xmlns="http://www.w3.org/2000/svg">
<path d="M24.6602 22.3597L19.7915 17.5078C19.5718 17.2888 19.2739 17.1671 18.9614 17.1671H18.1655C19.5132 15.4491 20.314 13.2886 20.314 10.9379C20.314 5.34615 15.7676 0.81546 10.1572 0.81546C4.54688 0.81546 0 5.34615 0 10.9379C0 16.5296 4.54639 21.0603 10.1572 21.0603C12.5156 21.0603 14.6841 20.2621 16.4077 18.9188V19.7121C16.4077 20.0236 16.5298 20.3205 16.7495 20.5395L21.6182 25.3914C22.0771 25.8489 22.8193 25.8489 23.2734 25.3914L24.6553 24.014C25.1143 23.5565 25.1143 22.8172 24.6602 22.3597ZM10.1572 17.9454C6.27344 17.9454 3.12598 14.8139 3.12598 10.9379C3.12598 7.06713 6.26807 3.93034 10.1572 3.93034C14.041 3.93034 17.1885 7.06177 17.1885 10.9379C17.1885 14.8086 14.0464 17.9454 10.1572 17.9454ZM11.481 10.5212L9.2832 9.86419C9.03125 9.78876 8.85498 9.53421 8.85498 9.24463C8.85498 8.89079 9.11377 8.60267 9.43115 8.60267H10.8037C11.0264 8.60267 11.2412 8.66545 11.4297 8.78372C11.5879 8.88252 11.7891 8.87668 11.9243 8.74819L12.498 8.2026C12.6704 8.03858 12.6606 7.75435 12.4702 7.61174C12.0259 7.27933 11.4897 7.08757 10.9385 7.05934V6.2665C10.9385 6.05138 10.7637 5.87714 10.5479 5.87714H9.7666C9.55078 5.87714 9.37598 6.05138 9.37598 6.2665V7.05107C8.22217 7.08173 7.29199 8.05124 7.29199 9.24463C7.29199 10.2166 7.92627 11.0848 8.83398 11.3564L11.0317 12.0135C11.2837 12.0889 11.46 12.3434 11.46 12.633C11.46 12.9869 11.2012 13.275 10.8838 13.275H9.51172C9.28906 13.275 9.07422 13.2122 8.88574 13.0939C8.72754 12.9951 8.52637 13.001 8.39111 13.1295L7.81738 13.6751C7.64502 13.8391 7.65479 14.1233 7.84521 14.2659C8.28955 14.5983 8.82568 14.7901 9.37695 14.8183V15.6112C9.37695 15.8263 9.55176 16.0005 9.76758 16.0005H10.5488C10.7646 16.0005 10.9395 15.8263 10.9395 15.6112V14.8266C12.0933 14.7959 13.0234 13.8269 13.0234 12.633C13.0234 11.6611 12.3892 10.7928 11.481 10.5212Z" fill="#2C435C"/>
</svg>
